<svg width="25" height="28" viewBox="0 0 25 28" fill="none" xmlns="http://www.w3.org/2000/svg">
<g clip-path="url(#clip0_539_1579)">
<path d="M24.2045 9.5452C24.0264 9.6712 20.8815 11.2868 20.8815 14.8792C20.8815 19.0344 24.8833 20.5044 25.0031 20.5408C24.9846 20.6304 24.3673 22.554 22.8931 24.514C21.5786 26.2388 20.2058 27.9608 18.1173 27.9608C16.0289 27.9608 15.4914 26.8548 13.0805 26.8548C10.731 26.8548 9.89558 27.9972 7.98526 27.9972C6.07494 27.9972 4.74202 26.4012 3.20946 24.4412C1.43428 22.1396 0 18.564 0 15.1704C0 9.7272 3.88206 6.8404 7.7027 6.8404C9.7328 6.8404 11.4251 8.0556 12.6996 8.0556C13.9128 8.0556 15.8047 6.7676 18.1143 6.7676C18.9896 6.7676 22.1345 6.8404 24.2045 9.5452ZM17.0178 4.4632C17.973 3.43 18.6487 1.9964 18.6487 0.5628C18.6487 0.364 18.6302 0.1624 18.5903 0C17.0362 0.0532 15.1873 0.9436 14.0725 2.1224C13.1972 3.0296 12.3802 4.4632 12.3802 5.9164C12.3802 6.1348 12.4201 6.3532 12.4386 6.4232C12.5369 6.44 12.6966 6.4596 12.8563 6.4596C14.2506 6.4596 16.0043 5.6084 17.0178 4.4632Z" fill="black"/>
</g>
<defs>
<clipPath id="clip0_539_1579">
<rect width="25" height="28" fill="white"/>
</clipPath>
</defs>
</svg>
