<svg width="27" height="27" viewBox="0 0 27 27" fill="none" xmlns="http://www.w3.org/2000/svg">
<g clip-path="url(#clip0_539_1583)">
<path d="M26.2954 10.9444H25.2442V10.8902H13.4992V16.1102H20.8744C19.7985 19.1489 16.9072 21.3302 13.4992 21.3302C9.1751 21.3302 5.66922 17.8243 5.66922 13.5002C5.66922 9.17608 9.1751 5.67019 13.4992 5.67019C15.4952 5.67019 17.3111 6.42318 18.6938 7.65314L22.385 3.96195C20.0542 1.78978 16.9366 0.450195 13.4992 0.450195C6.29236 0.450195 0.449219 6.29333 0.449219 13.5002C0.449219 20.7071 6.29236 26.5502 13.4992 26.5502C20.7061 26.5502 26.5492 20.7071 26.5492 13.5002C26.5492 12.6252 26.4592 11.7711 26.2954 10.9444Z" fill="#FFC107"/>
<path d="M1.95508 7.42607L6.24266 10.5705C7.4028 7.69817 10.2125 5.6702 13.5004 5.6702C15.4964 5.6702 17.3123 6.42318 18.695 7.65314L22.3862 3.96195C20.0554 1.78978 16.9378 0.450195 13.5004 0.450195C8.48791 0.450195 4.14095 3.28009 1.95508 7.42607Z" fill="#FF3D00"/>
<path d="M13.5006 26.5503C16.8714 26.5503 19.9342 25.2603 22.25 23.1625L18.211 19.7447C16.9008 20.7372 15.2721 21.3303 13.5006 21.3303C10.1063 21.3303 7.22418 19.1659 6.13842 16.1455L1.88281 19.4243C4.04259 23.6506 8.42869 26.5503 13.5006 26.5503Z" fill="#4CAF50"/>
<path d="M26.2962 10.9438H25.245V10.8896H13.5V16.1096H20.8752C20.3584 17.5693 19.4195 18.828 18.2084 19.7447L18.2104 19.7434L22.2494 23.1612C21.9636 23.4209 26.55 20.0246 26.55 13.4996C26.55 12.6246 26.46 11.7705 26.2962 10.9438Z" fill="#1976D2"/>
</g>
<defs>
<clipPath id="clip0_539_1583">
<rect width="27" height="27" rx="5" fill="white"/>
</clipPath>
</defs>
</svg>
