<svg width="24" height="24" viewBox="0 0 24 24" fill="none" xmlns="http://www.w3.org/2000/svg">
<g opacity="0.5">
<path d="M16.185 19.368L13.764 16.9455C12.8278 17.2802 11.8157 17.3422 10.8456 17.1243C9.87554 16.9063 8.98729 16.4173 8.28423 15.7143C7.58117 15.0112 7.09221 14.123 6.87424 13.1529C6.65628 12.1828 6.71827 11.1707 7.053 10.2345L3.963 7.1445C1.407 9.417 0 12 0 12C0 12 4.5 20.25 12 20.25C13.4406 20.245 14.8649 19.9448 16.185 19.368ZM7.815 4.632C9.13508 4.05514 10.5594 3.75496 12 3.75C19.5 3.75 24 12 24 12C24 12 22.5915 14.5815 20.0385 16.857L16.9455 13.764C17.2802 12.8278 17.3422 11.8157 17.1243 10.8456C16.9063 9.87554 16.4173 8.98729 15.7143 8.28423C15.0112 7.58117 14.123 7.09221 13.1529 6.87424C12.1828 6.65628 11.1707 6.71827 10.2345 7.053L7.815 4.6335V4.632Z" fill="#CCCCCC" fill-opacity="0.3"/>
<path d="M8.28823 11.4697C8.20572 12.0462 8.25859 12.634 8.44267 13.1864C8.62675 13.7389 8.93697 14.2409 9.34874 14.6527C9.76052 15.0645 10.2625 15.3747 10.815 15.5588C11.3675 15.7429 11.9553 15.7957 12.5317 15.7132L8.28673 11.4697H8.28823ZM15.7132 12.5317L11.4697 8.28673C12.0462 8.20422 12.634 8.25709 13.1864 8.44117C13.7389 8.62525 14.2409 8.93547 14.6527 9.34724C15.0645 9.75902 15.3747 10.261 15.5588 10.8135C15.7429 11.366 15.7957 11.9538 15.7132 12.5302V12.5317ZM20.4697 21.5317L2.46973 3.53173L3.53173 2.46973L21.5317 20.4697L20.4697 21.5317Z" fill="#CCCCCC" fill-opacity="0.3"/>
</g>
</svg>
